<?xml version="1.0" standalone="no"?>
<!DOCTYPE svg PUBLIC "-//W3C//DTD SVG 20010904//EN"
 "http://www.w3.org/TR/2001/REC-SVG-20010904/DTD/svg10.dtd">
<svg version="1.0" xmlns="http://www.w3.org/2000/svg"
 width="225.000000pt" height="225.000000pt" viewBox="0 0 225.000000 225.000000"
 preserveAspectRatio="xMidYMid meet">

<g transform="translate(0.000000,225.000000) scale(0.100000,-0.100000)"
fill="#000000" stroke="none">
<path d="M0 1125 l0 -1125 1125 0 1125 0 0 1125 0 1125 -1125 0 -1125 0 0
-1125z m570 58 c3 -259 9 -475 13 -480 5 -4 133 -10 285 -13 l277 -5 3 -47 3
-48 -304 0 c-297 0 -305 1 -332 22 -55 43 -55 47 -55 561 0 261 3 477 7 481 4
4 28 6 53 4 l45 -3 5 -472z m128 73 c2 -354 4 -402 19 -418 15 -16 36 -18 225
-18 l208 0 0 -34 c0 -69 14 -66 -259 -66 -207 0 -250 2 -269 16 l-22 15 0 455
0 455 48 -3 47 -3 3 -399z m132 67 c0 -186 4 -343 8 -350 5 -9 53 -13 157 -15
l150 -3 3 -47 3 -48 -200 0 c-188 0 -201 1 -211 19 -6 13 -10 157 -10 400 l0
381 50 0 50 0 0 -337z m130 63 c0 -212 3 -276 13 -284 7 -6 49 -12 92 -14 l80
-3 0 -45 0 -45 -126 -3 c-106 -2 -130 0 -143 13 -14 14 -16 56 -16 329 0 172
3 316 7 319 3 4 26 7 50 7 l43 0 0 -274z m645 258 c73 -34 70 -13 70 -559 l0
-490 -47 -3 -47 -3 -3 466 -3 467 -24 19 c-23 19 -40 20 -285 18 l-261 -1 -3
51 -3 51 286 0 c241 0 292 -3 320 -16z m-81 -140 c14 -14 16 -70 16 -465 l0
-449 -50 0 -50 0 0 403 c0 300 -3 406 -12 415 -9 9 -72 12 -220 12 l-208 0 0
50 0 50 254 0 c218 0 257 -2 270 -16z m-132 -131 c17 -15 18 -41 18 -400 l0
-383 -50 0 -50 0 0 338 c0 250 -3 341 -12 350 -8 8 -57 12 -155 12 l-143 0 0
50 0 50 187 0 c159 0 189 -2 205 -17z m-126 -137 c11 -16 14 -79 14 -333 l0
-313 -50 0 -50 0 0 264 c0 145 -3 271 -6 280 -5 13 -23 16 -88 16 -46 0 -85 2
-87 4 -2 2 -2 28 0 56 l3 52 125 -4 c110 -3 126 -5 139 -22z m496 -573 c21
-19 23 -44 6 -61 -39 -39 -100 17 -63 58 22 24 33 25 57 3z"/>
<path d="M1738 663 c6 -2 12 -16 12 -29 0 -22 -2 -23 -21 -14 -12 7 -18 18
-15 26 3 9 1 12 -4 9 -24 -15 9 -61 35 -51 33 12 25 68 -9 65 -7 0 -6 -2 2 -6z"/>
</g>
</svg>
