<?xml version="1.0" standalone="no"?>
<!DOCTYPE svg PUBLIC "-//W3C//DTD SVG 20010904//EN"
 "http://www.w3.org/TR/2001/REC-SVG-20010904/DTD/svg10.dtd">
<svg version="1.0" xmlns="http://www.w3.org/2000/svg"
 width="180.000000pt" height="180.000000pt" viewBox="0 0 180.000000 180.000000"
 preserveAspectRatio="xMidYMid meet">

<g transform="translate(0.000000,180.000000) scale(0.100000,-0.100000)"
fill="#000000" stroke="none">
<path d="M750 1723 c-245 -42 -474 -211 -589 -433 -64 -124 -83 -197 -88 -350
-6 -150 12 -252 61 -364 74 -167 222 -321 387 -405 324 -163 698 -103 955 153
256 257 316 631 153 955 -109 216 -309 375 -543 431 -77 19 -262 26 -336 13z
m462 -165 c53 -14 127 -95 146 -160 32 -106 -28 -229 -133 -274 -71 -30 72
-24 152 7 23 8 20 3 -19 -43 -25 -29 -67 -84 -93 -123 -53 -77 -147 -264 -139
-277 3 -4 23 -8 44 -8 38 0 41 3 91 78 85 127 172 233 253 310 79 75 118 96
73 40 -102 -128 -257 -376 -257 -412 0 -8 6 -17 13 -19 6 -3 2 -6 -11 -6 -25
-1 -53 -55 -103 -202 -36 -109 -39 -181 -7 -203 l22 -16 -21 0 c-70 0 -115 65
-115 166 0 60 15 101 90 247 2 4 -17 7 -42 7 l-45 0 -53 -102 c-41 -82 -68
-118 -128 -178 -104 -104 -180 -141 -299 -146 -77 -2 -80 -2 -26 5 33 4 71 13
84 20 41 22 112 93 152 153 33 48 139 235 139 244 0 1 -17 5 -37 7 -36 3 -36
4 8 5 42 2 47 5 63 40 40 84 148 231 222 301 l77 74 -49 -6 c-27 -3 -87 1
-133 9 -46 8 -84 13 -85 12 -12 -20 -96 -215 -96 -221 0 -4 -4 -13 -10 -20 -5
-7 -28 -36 -49 -66 -102 -138 -271 -219 -436 -209 -285 18 -377 359 -159 588
59 62 175 131 218 129 12 0 -3 -9 -34 -21 -81 -31 -165 -119 -221 -232 -43
-88 -44 -91 -44 -191 0 -95 2 -104 30 -150 21 -33 47 -57 85 -79 49 -28 64
-31 135 -31 98 0 151 22 226 91 55 52 149 187 149 215 0 10 4 19 9 21 12 4 83
149 77 156 -3 3 -2 10 3 16 5 6 32 56 61 111 67 128 106 186 175 260 37 40 52
62 45 69 -6 6 -45 11 -88 11 -66 0 -86 -4 -144 -32 -37 -17 -89 -51 -116 -75
-48 -42 -48 -42 4 8 75 74 160 114 240 114 35 0 83 -5 106 -12z m-635 -244
c-3 -3 -12 -4 -19 -1 -8 3 -5 6 6 6 11 1 17 -2 13 -5z m188 -105 c26 -52 30
-72 30 -139 -1 -69 -5 -86 -37 -151 -20 -41 -53 -90 -74 -109 l-37 -35 34 45
c19 25 47 74 63 110 25 54 30 79 30 145 1 69 -3 88 -26 134 -30 58 -32 61 -20
61 4 0 21 -28 37 -61z"/>
<path d="M1207 1478 c-71 -123 -161 -339 -146 -349 22 -13 99 -18 126 -8 53
19 102 79 123 147 24 77 25 120 5 170 -18 42 -52 82 -71 82 -7 0 -23 -19 -37
-42z"/>
</g>
</svg>
